<?xml version="1.0" standalone="no"?>
<!DOCTYPE svg PUBLIC "-//W3C//DTD SVG 20010904//EN"
 "http://www.w3.org/TR/2001/REC-SVG-20010904/DTD/svg10.dtd">
<svg version="1.0" xmlns="http://www.w3.org/2000/svg"
 width="193.000000pt" height="193.000000pt" viewBox="0 0 193.000000 193.000000"
 preserveAspectRatio="xMidYMid meet">
<metadata>
Created by potrace 1.11, written by Peter Selinger 2001-2013
</metadata>
<g transform="translate(0.000000,193.000000) scale(0.100000,-0.100000)"
fill="#000000" stroke="none">
<path d="M894 1914 c-45 -15 -107 -79 -120 -124 -8 -28 -17 -34 -79 -54 -188
-60 -363 -191 -473 -352 -56 -83 -117 -232 -137 -339 -24 -121 -6 -351 35
-450 65 -158 121 -244 222 -341 126 -123 263 -196 436 -234 121 -27 303 -21
422 13 249 71 456 246 565 480 59 126 79 215 79 362 1 146 -4 183 -40 293 -45
139 -108 238 -225 354 -104 104 -205 165 -353 213 -64 21 -71 26 -85 62 -22
55 -40 77 -83 102 -44 27 -112 33 -164 15z m139 -112 c94 -94 -44 -234 -142
-143 -51 47 -41 123 20 160 40 24 87 18 122 -17z m-232 -179 c34 -52 91 -83
157 -83 81 0 124 27 189 119 5 7 114 -30 167 -56 208 -105 361 -295 420 -522
18 -71 22 -110 20 -202 -1 -63 -4 -123 -7 -134 -33 -131 -65 -208 -123 -296
-40 -60 -144 -172 -178 -191 -11 -6 -13 36 -15 220 -1 236 -8 289 -51 372 -73
144 -230 246 -389 254 -214 10 -399 -112 -475 -314 -18 -48 -21 -84 -26 -300
l-5 -245 -69 65 c-103 98 -170 205 -214 340 -28 86 -34 119 -37 217 -8 271
132 539 360 688 60 40 206 105 236 105 9 0 27 -17 40 -37z m288 -632 c102 -39
173 -107 223 -216 22 -48 23 -63 26 -322 l3 -271 -78 -30 c-210 -81 -420 -79
-621 6 l-62 27 0 253 c1 286 6 314 70 410 94 141 283 203 439 143z"/>
<path d="M1160 795 c-71 -15 -116 -39 -162 -87 l-37 -40 -30 34 c-44 50 -122
89 -192 95 -55 5 -59 4 -68 -18 -15 -38 7 -61 71 -74 103 -20 171 -100 171
-200 0 -101 -76 -188 -175 -201 -53 -7 -84 -36 -72 -68 22 -58 192 -12 265 72
l30 34 39 -41 c52 -53 111 -82 181 -88 51 -5 58 -3 69 16 6 12 8 30 5 41 -6
20 -17 25 -81 35 -90 14 -166 106 -166 201 0 94 78 187 167 199 61 9 73 14 80
35 7 22 -8 55 -27 62 -7 3 -38 0 -68 -7z"/>
</g>
</svg>
